<svg width="40" height="56" viewBox="0 0 40 56" fill="none" xmlns="http://www.w3.org/2000/svg">
<path d="M15.8399 7.93494C15.8399 7.93494 20.4791 9.09395 21.1946 9.51091C21.91 9.92787 21.8626 11.7484 21.8626 11.7484L18.0187 11.9242L15.3402 11.1817L13.2735 10.8487L14.9948 8.51174L15.8399 7.93494Z" fill="#2F2E41"/>
<path d="M16.3404 6.64903C16.3404 6.64903 16.4155 7.74891 15.5703 8.3257C14.7251 8.9025 17.749 12.315 17.749 12.315L19.7168 12.4584C19.7168 12.4584 20.0095 9.19652 20.7534 8.52115C21.4974 7.84578 16.3404 6.64903 16.3404 6.64903Z" fill="#EEC7CD" fill-opacity="0.75"/>
<path d="M22.2244 39.6366L16.9344 43.5374L19.4737 45.6377L24.6815 40.9102L22.2244 39.6366Z" fill="#EEC7CD"/>
<path d="M18.1701 43.9011C18.1701 43.9011 16.9748 41.9899 16.9653 42.354C16.9557 42.7181 15.1215 45.4116 16.1453 45.9423C17.1691 46.4729 26.3296 49.3295 26.6641 48.4419C26.9985 47.5543 24.2307 46.2581 24.2307 46.2581C24.2307 46.2581 22.8259 44.4229 22.4092 44.4837C21.9926 44.5445 18.1701 43.9011 18.1701 43.9011Z" fill="#EEEEEE" fill-opacity="0.75"/>
<path d="M20.2414 44.0521L22.4786 49.7785L25.2987 49.072L22.8306 44.2409L20.2414 44.0521Z" fill="#EEC7CD"/>
<path d="M28.1976 33.4144L26.9263 34.4161C26.9263 34.4161 20.8899 39.0833 21.2899 39.6597C21.6899 40.2361 23.396 42.458 24.54 42.359C25.684 42.26 30.7953 37.2518 30.7953 37.2518L30.5796 33.5881L28.1976 33.4144Z" fill="#4A4A4A"/>
<path d="M8.00991 27.6563C8.00991 27.6563 8.685 29.6207 11.2481 30.8108C13.8111 32.0008 16.3576 33.8281 16.4612 33.8356C16.5647 33.8432 16.8778 33.7748 16.8683 34.1389C16.8588 34.503 17.4612 35.2765 17.4612 35.2765C17.4612 35.2765 18.4594 44.743 19.5939 45.0081C20.7284 45.2732 23.2235 45.0903 23.3342 44.8248C23.4449 44.5592 21.936 34.782 21.9407 34.5999L21.9978 32.4152C21.9978 32.4152 26.5191 34.1129 26.9286 34.3251C27.3381 34.5374 30.7953 37.2518 30.7953 37.2518C30.7953 37.2518 35.2986 35.6649 32.1688 32.3359C29.0389 29.0069 23.1056 25.7472 23.1056 25.7472L20.9544 24.6783L18.9936 24.1292L18.9206 23.0892L14.1688 22.2684L8.85839 22.9757L8.00991 27.6563Z" fill="#4A4A4A" fill-opacity="0.75"/>
<path d="M18.647 9.32334C20.6684 9.77786 22.6275 8.72098 23.0229 6.96273C23.4182 5.20448 22.1001 3.41068 20.0787 2.95616C18.0572 2.50164 16.0981 3.55852 15.7027 5.31677C15.3074 7.07502 16.6256 8.86882 18.647 9.32334Z" fill="#EEC7CD" fill-opacity="0.75"/>
<path d="M15.4762 7.95403L15.9312 7.98719C15.9312 7.98719 16.1276 10.8287 18.4882 11.8216C18.4882 11.8216 19.9862 10.8299 19.9824 10.6049C19.9786 10.3799 21.2475 9.46917 21.6428 10.2276C22.038 10.986 18.8436 22.062 19.2508 22.3653C19.6579 22.6686 20.5805 23.1006 19.6318 23.6699C18.6831 24.2391 15.3546 24.5437 14.7451 24.0432C14.1356 23.5428 13.3902 20.2964 13.0044 19.1739C12.6186 18.0514 12.4006 14.4787 12.4006 14.4787C12.4006 14.4787 11.9848 10.5267 12.936 9.86646C13.8871 9.20619 15.4762 7.95403 15.4762 7.95403Z" fill="white" fill-opacity="0.75"/>
<path d="M15.8714 22.5628C15.6137 23.3265 15.299 24.0716 14.9294 24.7935C14.6097 25.3766 14.316 25.706 14.0811 25.6363C13.4814 25.4599 13.0302 26.1741 12.6863 27.0371C12.3204 27.9525 12.0768 29.0358 11.9071 29.3998C11.6827 29.8808 10.8877 30.1076 9.49809 29.6761C8.67407 29.4032 7.88662 29.0408 7.15477 28.5975C5.38004 27.5637 6.53838 22.6764 7.67561 19.1123C8.37221 16.9276 9.06065 15.2388 9.06065 15.2388C9.06065 15.2388 8.81891 13.6026 8.86531 12.5288C8.87068 12.3322 8.89505 12.1374 8.93815 11.9464C9.16913 11.0513 11.2936 10.3181 12.7782 9.05774C14.2641 7.79762 15.8906 7.98445 15.8906 7.98445L15.0264 9.28885C15.0264 9.28885 15.6144 10.6086 15.3787 11.6858C15.1429 12.763 16.9785 13.9914 17.5831 14.6745C17.9632 15.1037 16.9699 19.4697 15.8714 22.5628Z" fill="#A289E9" fill-opacity="0.75"/>
<path d="M20.4672 9.54908C20.4672 9.54908 20.5686 9.71434 21.1874 9.78398C21.9295 9.8675 22.8764 10.3094 22.9725 10.9629C23.1488 12.1614 23.336 16.9175 23.336 16.9175C23.336 16.9175 22.6804 22.1593 22.6495 23.3427C22.6187 24.526 22.2818 25.5047 22.3688 26.1494C22.4557 26.7942 20.439 24.5495 19.5045 24.5726C18.57 24.5957 18.6484 21.5918 18.9852 20.6131C19.322 19.6345 19.6613 18.5648 19.5862 17.4649C19.5111 16.365 20.6686 13.759 20.7888 13.1294C20.909 12.4997 19.3331 10.4903 20.4672 9.54908Z" fill="#A289E9"/>
<path d="M19.472 26.075C19.472 26.075 22.9338 28.7854 22.7161 31.4862C22.4985 34.187 18.1026 27.7864 18.1026 27.7864L19.472 26.075Z" fill="#EEC7CD"/>
<path d="M22.1015 24.7163C22.1015 24.7163 22.1183 30.1896 24.0304 30.329C25.9424 30.4684 24.1729 24.8674 24.1729 24.8674L22.1015 24.7163Z" fill="#EEC7CD"/>
<path d="M23.3333 48.8375C23.3333 48.8375 22.1727 49.5737 21.9703 49.3766C21.7679 49.1794 20.7859 51.023 21.1883 51.5084C21.5907 51.9937 23.3276 53.0323 23.2074 53.662C23.0872 54.2916 28.1454 55.2988 28.4727 54.6842C28.8001 54.0697 28.325 52.3935 27.8166 51.9916C27.3083 51.5897 25.7676 48.5966 25.7676 48.5966C25.7676 48.5966 24.0701 48.4352 23.3333 48.8375Z" fill="#EEEEEE" fill-opacity="0.75"/>
<path opacity="0.1" d="M18.1387 29.1203C17.3641 28.3664 14.8855 27.6653 12.6863 27.0371C11.7212 26.7628 10.8099 26.5017 10.12 26.2556C9.45489 26.0196 8.96232 25.3381 8.59846 24.4058C8.04684 22.9931 7.79161 21.0034 7.67562 19.1123C8.37222 16.9276 9.06066 15.2388 9.06066 15.2388C9.06066 15.2388 8.81893 13.6026 8.86532 12.5289C9.03182 12.3999 9.23008 12.3057 9.44662 12.2529C12.008 11.9019 12.3118 21.0917 12.2919 22.5186C12.2918 22.5421 12.2907 22.5644 12.2903 22.5834C12.2714 23.3161 13.6377 24.2536 14.9294 24.7935C15.7251 25.1263 16.4938 25.3093 16.8919 25.1988C17.9371 24.9103 20.3583 27.55 20.5631 27.6556C20.7677 27.7622 19.251 30.2052 18.1387 29.1203Z" fill="black"/>
<path d="M9.56717 11.7185C9.56717 11.7185 7.69108 12.0377 7.70439 15.5043C7.71771 18.9709 7.9776 24.9179 10.2395 25.7212C12.5013 26.5245 17.1453 27.5014 18.2584 28.5858C19.3715 29.6701 20.8879 27.2271 20.6832 27.1209C20.4784 27.0148 18.0569 24.3759 17.0117 24.6645C15.9666 24.9531 12.3797 23.2324 12.4106 22.049C12.4414 20.8657 12.1706 11.361 9.56717 11.7185Z" fill="#A289E9" fill-opacity="0.75"/>
<path d="M22.2989 12.9202L23.3298 17.1543C23.3298 17.1543 23.5384 17.1146 23.6253 17.7594C23.7123 18.4041 23.698 18.9503 23.9968 19.4281C24.2957 19.9058 24.7627 25.8679 24.7556 26.141C24.7485 26.4141 22.1176 26.7695 21.7384 25.9211C21.3592 25.0726 22.2989 12.9202 22.2989 12.9202Z" fill="#A289E9" fill-opacity="0.75"/>
<path d="M17.2905 5.62722C17.4381 5.62619 17.4951 5.46882 17.5282 5.34367C17.7054 4.67342 18.3292 4.08507 19.1173 4.05555C19.4181 4.05165 19.7201 4.10454 20.0033 4.21069C20.4097 4.35285 20.7862 4.56033 21.113 4.8221C21.2854 4.9604 21.4498 5.11723 21.663 5.19557C21.8038 5.24732 22.3965 5.54753 22.536 5.60239C22.8426 5.723 23.0823 6.03665 23.4079 6.0132C23.7194 5.99075 23.8578 5.67678 23.9252 5.40989C24.0788 4.80185 23.3403 4.04839 22.9724 3.48765C22.6932 3.06212 22.1918 2.78193 21.6853 2.58095C21.0911 2.35726 20.4767 2.18457 19.8512 2.06538C19.0078 1.88943 18.9669 1.63759 18.1379 1.7835C17.3089 1.92941 16.5308 2.41583 16.3302 3.13816C16.2884 3.28863 16.2721 3.44549 16.2233 3.59396C16.1041 3.95614 15.7143 4.11918 15.5273 4.45527C15.3921 4.70232 15.319 4.97476 15.3126 5.25501C15.3061 5.53527 15.3666 5.81711 15.49 6.08238C15.6904 6.50568 15.7093 6.79034 15.9601 7.25708C16.2046 7.1196 16.0821 7.10866 16.3266 6.97117C16.4313 6.93116 16.5151 6.85981 16.564 6.76905C16.6129 6.67828 16.6239 6.57358 16.5953 6.47243L16.5441 5.69149C16.518 5.54826 16.5435 5.40412 16.617 5.27968C16.9603 4.83432 17.0444 5.62894 17.2905 5.62722Z" fill="#866510" fill-opacity="0.75"/>
</svg>
